<svg width="4530" height="988" viewBox="0 0 4530 988" fill="none" xmlns="http://www.w3.org/2000/svg">
<path d="M185.711 -28.874C165.011 249.856 144.301 592.066 123.601 870.806C119.861 921.126 99.2508 987.266 48.9008 983.966C3.4308 980.986 -11.6392 911.556 20.1108 878.866C51.8508 846.176 105.771 847.056 148.001 864.166C190.231 881.276 225.851 911.356 266.281 932.366C413.211 1008.72 617.711 936.226 683.751 784.386C731.391 674.866 719.571 530.566 814.261 457.786C907.361 386.226 1043.48 432.976 1140.8 498.676C1238.13 564.376 1333.71 650.276 1451.08 653.596C1630.73 658.676 1783.33 465.836 1959.01 503.746C2038.83 520.966 2099.93 582.666 2162.82 634.756C2225.71 686.836 2305.94 733.726 2384.98 713.236C2529.82 675.676 2549.97 453.616 2688.63 397.376C2799.45 352.426 2917.09 437.166 3006.36 516.746C3095.63 596.326 3211.92 682.096 3323.55 639.176C3407.25 606.996 3454.27 511.116 3538.91 481.496C3607.02 457.666 3683.16 483.266 3743.93 522.186C3804.7 561.106 3856.55 612.986 3918.58 649.846C4123.48 771.606 4424.1 680.256 4526.63 465.096" stroke="black" stroke-width="6"/>
</svg>
