<svg width="16" height="21" viewBox="0 0 16 21" fill="none" xmlns="http://www.w3.org/2000/svg">
<g id="Group 33">
<path id="Vector" d="M8.22113 0.895508C2.89755 0.895508 0.0664062 4.30697 0.0664062 8.02679C0.0664062 9.75195 1.03036 11.9032 2.5734 12.5855C2.80771 12.6911 2.93519 12.6462 2.98739 12.4289C3.03353 12.2638 3.23627 11.4686 3.33461 11.0935C3.35209 11.0349 3.35365 10.9728 3.33914 10.9135C3.32463 10.8542 3.29457 10.7998 3.25205 10.756C2.73973 10.1635 2.33302 9.08423 2.33302 8.07171C2.33302 5.4773 4.39568 2.95817 7.90548 2.95817C10.9406 2.95817 13.0639 4.92977 13.0639 7.74999C13.0639 10.9369 11.3776 13.1416 9.18629 13.1416C7.97347 13.1416 7.07022 12.1897 7.35673 11.0121C7.70273 9.60991 8.38138 8.10207 8.38138 7.09077C8.38138 6.18388 7.86906 5.4336 6.82255 5.4336C5.58787 5.4336 4.58629 6.65614 4.58629 8.29753C4.58629 9.34039 4.95536 10.0445 4.95536 10.0445L3.507 15.8999C3.12337 17.4599 3.55921 19.9863 3.59684 20.2036C3.61991 20.3238 3.75467 20.3615 3.82994 20.2631C3.95013 20.1053 5.4264 17.9989 5.84039 16.4765C5.99093 15.9217 6.60888 13.6721 6.60888 13.6721C7.01559 14.4066 8.18957 15.0221 9.44003 15.0221C13.1599 15.0221 15.8477 11.7527 15.8477 7.69536C15.8344 3.80557 12.5055 0.895508 8.22113 0.895508Z" fill="#BB895B"/>
</g>
</svg>
